<svg xmlns="http://www.w3.org/2000/svg" xmlns:xlink="http://www.w3.org/1999/xlink" width="328" zoomAndPan="magnify" viewBox="0 0 246 67.499998" height="90" preserveAspectRatio="xMidYMid meet" version="1.0"><defs><g/><clipPath id="7a2288345b"><path d="M 0.90625 0 L 245.09375 0 L 245.09375 67.003906 L 0.90625 67.003906 Z M 0.90625 0 " clip-rule="nonzero"/></clipPath><clipPath id="163a4d5e51"><path d="M 4 0 L 65 0 L 65 64 L 4 64 Z M 4 0 " clip-rule="nonzero"/></clipPath><clipPath id="63c2a9f83c"><path d="M 0.90625 3.835938 L 64.816406 0.00390625 L 68.511719 61.683594 L 4.601562 65.515625 Z M 0.90625 3.835938 " clip-rule="nonzero"/></clipPath><clipPath id="111d502a82"><path d="M 0.90625 3.835938 L 64.816406 0.00390625 L 68.511719 61.683594 L 4.601562 65.515625 Z M 0.90625 3.835938 " clip-rule="nonzero"/></clipPath></defs><g clip-path="url(#7a2288345b)"><path fill="#ffffff" d="M 0.90625 0 L 245.09375 0 L 245.09375 67.003906 L 0.90625 67.003906 Z M 0.90625 0 " fill-opacity="0" fill-rule="nonzero"/></g><g clip-path="url(#163a4d5e51)"><g clip-path="url(#63c2a9f83c)"><g clip-path="url(#111d502a82)"><path fill="#ff3131" d="M 49.929688 48.667969 L 46.632812 45.746094 C 46.003906 45.1875 45.949219 44.230469 46.503906 43.601562 L 50.28125 39.34375 C 50.835938 38.714844 50.78125 37.757812 50.152344 37.199219 C 49.523438 36.644531 48.566406 36.699219 48.007812 37.328125 L 41.257812 44.9375 C 40.5625 45.722656 39.367188 45.792969 38.582031 45.101562 C 37.796875 44.40625 37.726562 43.207031 38.421875 42.421875 L 49.703125 29.703125 C 50.261719 29.074219 50.203125 28.117188 49.574219 27.558594 C 48.945312 27.003906 47.988281 27.058594 47.429688 27.6875 L 23.269531 54.933594 C 22.574219 55.714844 21.375 55.789062 20.589844 55.09375 C 19.808594 54.398438 19.734375 53.199219 20.429688 52.414062 L 40.0625 30.28125 C 40.617188 29.652344 40.5625 28.695312 39.933594 28.136719 C 39.304688 27.582031 38.347656 27.636719 37.789062 28.265625 L 30.132812 36.898438 C 29.578125 37.527344 28.621094 37.582031 27.992188 37.027344 L 27.421875 36.523438 C 26.792969 35.964844 26.738281 35.007812 27.292969 34.378906 L 39.480469 20.636719 C 40.039062 20.007812 39.980469 19.050781 39.351562 18.492188 C 38.726562 17.9375 37.765625 17.996094 37.210938 18.621094 L 8.496094 51.003906 C 7.800781 51.789062 6.605469 51.859375 5.820312 51.164062 C 5.035156 50.46875 4.964844 49.269531 5.660156 48.488281 L 29.84375 21.21875 C 30.398438 20.59375 30.34375 19.632812 29.714844 19.078125 C 29.085938 18.519531 28.128906 18.578125 27.570312 19.207031 L 23.796875 23.464844 C 23.242188 24.089844 22.28125 24.148438 21.65625 23.589844 L 18.359375 20.667969 C 17.515625 19.921875 17.753906 18.546875 18.800781 18.125 L 62.585938 0.550781 C 63.75 0.0859375 64.941406 1.144531 64.617188 2.351562 L 52.402344 47.925781 C 52.109375 49.015625 50.773438 49.414062 49.929688 48.667969 Z M 24.90625 39.9375 C 24.121094 39.242188 22.921875 39.316406 22.230469 40.097656 L 4.984375 59.539062 C 4.289062 60.324219 4.363281 61.523438 5.144531 62.21875 C 5.929688 62.914062 7.128906 62.839844 7.824219 62.058594 L 25.066406 42.613281 C 25.761719 41.832031 25.6875 40.632812 24.90625 39.9375 Z M 36.128906 47.863281 C 35.347656 47.167969 34.148438 47.242188 33.453125 48.023438 L 22.246094 60.660156 C 21.550781 61.445312 21.621094 62.644531 22.40625 63.339844 C 23.1875 64.035156 24.386719 63.960938 25.082031 63.179688 L 36.292969 50.539062 C 36.984375 49.757812 36.914062 48.558594 36.128906 47.863281 Z M 19.496094 56.257812 C 18.730469 55.578125 17.5625 55.648438 16.882812 56.414062 C 16.207031 57.175781 16.277344 58.347656 17.042969 59.023438 C 17.804688 59.703125 18.972656 59.632812 19.652344 58.867188 C 20.328125 58.105469 20.257812 56.933594 19.496094 56.257812 Z M 19.496094 56.257812 " fill-opacity="1" fill-rule="nonzero"/></g></g></g><g fill="#FFFFFF" fill-opacity="1"><g transform="translate(63.396885, 44.653303)"><g><path d="M 10.1875 0 C 10.132812 -0.175781 10.082031 -0.335938 10.03125 -0.484375 C 9.976562 -0.640625 9.929688 -0.828125 9.890625 -1.046875 C 9.859375 -1.273438 9.835938 -1.566406 9.828125 -1.921875 C 9.816406 -2.273438 9.8125 -2.71875 9.8125 -3.25 L 9.8125 -7.390625 C 9.8125 -8.617188 9.597656 -9.484375 9.171875 -9.984375 C 8.742188 -10.492188 8.050781 -10.75 7.09375 -10.75 L 5.65625 -10.75 L 5.65625 0 L 1.515625 0 L 1.515625 -26.40625 L 7.765625 -26.40625 C 9.929688 -26.40625 11.5 -25.898438 12.46875 -24.890625 C 13.4375 -23.890625 13.921875 -22.367188 13.921875 -20.328125 L 13.921875 -18.25 C 13.921875 -15.539062 13.015625 -13.757812 11.203125 -12.90625 C 12.253906 -12.476562 12.972656 -11.78125 13.359375 -10.8125 C 13.753906 -9.84375 13.953125 -8.664062 13.953125 -7.28125 L 13.953125 -3.203125 C 13.953125 -2.546875 13.976562 -1.972656 14.03125 -1.484375 C 14.082031 -0.992188 14.207031 -0.5 14.40625 0 Z M 5.65625 -22.625 L 5.65625 -14.515625 L 7.28125 -14.515625 C 8.0625 -14.515625 8.671875 -14.71875 9.109375 -15.125 C 9.546875 -15.53125 9.765625 -16.257812 9.765625 -17.3125 L 9.765625 -19.921875 C 9.765625 -20.867188 9.59375 -21.554688 9.25 -21.984375 C 8.914062 -22.410156 8.382812 -22.625 7.65625 -22.625 Z M 5.65625 -22.625 "/></g></g></g><g fill="#FFFFFF" fill-opacity="1"><g transform="translate(78.557468, 44.653303)"><g><path d="M 5.65625 -15.28125 L 11.359375 -15.28125 L 11.359375 -11.5 L 5.65625 -11.5 L 5.65625 -3.765625 L 12.828125 -3.765625 L 12.828125 0 L 1.515625 0 L 1.515625 -26.40625 L 12.828125 -26.40625 L 12.828125 -22.625 L 5.65625 -22.625 Z M 5.65625 -15.28125 "/></g></g></g><g fill="#FFFFFF" fill-opacity="1"><g transform="translate(92.435808, 44.653303)"><g><path d="M 6.9375 -10.53125 L 5.65625 -8.109375 L 5.65625 0 L 1.515625 0 L 1.515625 -26.40625 L 5.65625 -26.40625 L 5.65625 -14.90625 L 11.171875 -26.40625 L 15.234375 -26.40625 L 9.46875 -14.640625 L 15.234375 0 L 10.96875 0 Z M 6.9375 -10.53125 "/></g></g></g><g fill="#FFFFFF" fill-opacity="1"><g transform="translate(108.048937, 44.653303)"><g><path d="M 1.515625 -26.40625 L 5.65625 -26.40625 L 5.65625 -3.765625 L 12.484375 -3.765625 L 12.484375 0 L 1.515625 0 Z M 1.515625 -26.40625 "/></g></g></g><g fill="#FFFFFF" fill-opacity="1"><g transform="translate(120.909029, 44.653303)"><g><path d="M 14.9375 0 L 10.75 0 L 10.03125 -4.796875 L 4.9375 -4.796875 L 4.21875 0 L 0.421875 0 L 4.640625 -26.40625 L 10.71875 -26.40625 Z M 5.46875 -8.375 L 9.46875 -8.375 L 7.46875 -21.71875 Z M 5.46875 -8.375 "/></g></g></g><g fill="#FFFFFF" fill-opacity="1"><g transform="translate(136.258175, 44.653303)"><g><path d="M 10.296875 -7.65625 L 13.125 -26.40625 L 18.890625 -26.40625 L 18.890625 0 L 14.96875 0 L 14.96875 -18.9375 L 12.109375 0 L 8.1875 0 L 5.09375 -18.671875 L 5.09375 0 L 1.46875 0 L 1.46875 -26.40625 L 7.234375 -26.40625 Z M 10.296875 -7.65625 "/></g></g></g><g fill="#ff3131" fill-opacity="1"><g transform="translate(159.011111, 44.653303)"><g><path d="M 5.5 -4 L 5.5 0 L 1.515625 0 L 1.515625 -4 Z M 5.5 -4 "/></g></g></g><g fill="#ff3131" fill-opacity="1"><g transform="translate(166.025705, 44.653303)"><g><path d="M 7.765625 -26.40625 C 9.929688 -26.40625 11.5 -25.898438 12.46875 -24.890625 C 13.4375 -23.890625 13.921875 -22.367188 13.921875 -20.328125 L 13.921875 -19.390625 C 13.921875 -18.023438 13.707031 -16.898438 13.28125 -16.015625 C 12.851562 -15.140625 12.171875 -14.488281 11.234375 -14.0625 C 12.367188 -13.632812 13.164062 -12.9375 13.625 -11.96875 C 14.09375 -11.007812 14.328125 -9.820312 14.328125 -8.40625 L 14.328125 -6.265625 C 14.328125 -4.222656 13.800781 -2.664062 12.75 -1.59375 C 11.695312 -0.53125 10.125 0 8.03125 0 L 1.515625 0 L 1.515625 -26.40625 Z M 5.65625 -11.875 L 5.65625 -3.765625 L 8.03125 -3.765625 C 8.738281 -3.765625 9.273438 -3.953125 9.640625 -4.328125 C 10.003906 -4.710938 10.1875 -5.394531 10.1875 -6.375 L 10.1875 -8.671875 C 10.1875 -9.910156 9.976562 -10.753906 9.5625 -11.203125 C 9.144531 -11.648438 8.457031 -11.875 7.5 -11.875 Z M 5.65625 -22.625 L 5.65625 -15.65625 L 7.28125 -15.65625 C 8.0625 -15.65625 8.671875 -15.851562 9.109375 -16.25 C 9.546875 -16.65625 9.765625 -17.382812 9.765625 -18.4375 L 9.765625 -19.921875 C 9.765625 -20.867188 9.59375 -21.554688 9.25 -21.984375 C 8.914062 -22.410156 8.382812 -22.625 7.65625 -22.625 Z M 5.65625 -22.625 "/></g></g></g><g fill="#ff3131" fill-opacity="1"><g transform="translate(181.337136, 44.653303)"><g><path d="M 1.515625 -26.40625 L 5.65625 -26.40625 L 5.65625 0 L 1.515625 0 Z M 1.515625 -26.40625 "/></g></g></g><g fill="#ff3131" fill-opacity="1"><g transform="translate(188.502579, 44.653303)"><g><path d="M 13.015625 -26.40625 L 13.015625 -22.703125 L 5.125 -3.765625 L 13.015625 -3.765625 L 13.015625 0 L 0.875 0 L 0.875 -3.703125 L 8.75 -22.625 L 1.25 -22.625 L 1.25 -26.40625 Z M 13.015625 -26.40625 "/></g></g></g><g fill="#FFFFFF" fill-opacity="1"><g transform="translate(64.141371, 59.495545)"><g><path d="M 5.125 0 C 5.03125 0 4.972656 -0.0351562 4.953125 -0.109375 L 3.46875 -4.609375 C 3.457031 -4.640625 3.4375 -4.65625 3.40625 -4.65625 L 2.140625 -4.65625 C 2.097656 -4.65625 2.078125 -4.632812 2.078125 -4.59375 L 2.078125 -0.140625 C 2.078125 -0.046875 2.03125 0 1.9375 0 L 1.1875 0 C 1.09375 0 1.046875 -0.046875 1.046875 -0.140625 L 1.046875 -10.03125 C 1.046875 -10.132812 1.09375 -10.1875 1.1875 -10.1875 L 3.59375 -10.1875 C 4.300781 -10.1875 4.875 -9.925781 5.3125 -9.40625 C 5.75 -8.882812 5.96875 -8.207031 5.96875 -7.375 C 5.96875 -6.75 5.832031 -6.207031 5.5625 -5.75 C 5.289062 -5.289062 4.921875 -4.96875 4.453125 -4.78125 C 4.410156 -4.769531 4.394531 -4.75 4.40625 -4.71875 L 6 -0.15625 L 6.015625 -0.109375 C 6.015625 -0.0351562 5.96875 0 5.875 0 Z M 2.140625 -9.28125 C 2.097656 -9.28125 2.078125 -9.257812 2.078125 -9.21875 L 2.078125 -5.546875 C 2.078125 -5.503906 2.097656 -5.484375 2.140625 -5.484375 L 3.453125 -5.484375 C 3.890625 -5.484375 4.242188 -5.65625 4.515625 -6 C 4.796875 -6.34375 4.9375 -6.800781 4.9375 -7.375 C 4.9375 -7.945312 4.796875 -8.40625 4.515625 -8.75 C 4.242188 -9.101562 3.890625 -9.28125 3.453125 -9.28125 Z M 2.140625 -9.28125 "/></g></g></g><g fill="#FFFFFF" fill-opacity="1"><g transform="translate(70.58454, 59.495545)"><g><path d="M 5.28125 -3.4375 C 5.28125 -3.332031 5.234375 -3.28125 5.140625 -3.28125 L 1.8125 -3.28125 C 1.78125 -3.28125 1.765625 -3.265625 1.765625 -3.234375 L 1.765625 -2.171875 C 1.765625 -1.765625 1.875 -1.429688 2.09375 -1.171875 C 2.320312 -0.910156 2.625 -0.78125 3 -0.78125 C 3.3125 -0.78125 3.570312 -0.875 3.78125 -1.0625 C 4 -1.257812 4.144531 -1.503906 4.21875 -1.796875 C 4.25 -1.890625 4.300781 -1.9375 4.375 -1.9375 L 5.109375 -1.90625 C 5.148438 -1.90625 5.179688 -1.890625 5.203125 -1.859375 C 5.234375 -1.828125 5.242188 -1.789062 5.234375 -1.75 C 5.160156 -1.175781 4.925781 -0.722656 4.53125 -0.390625 C 4.132812 -0.0546875 3.625 0.109375 3 0.109375 C 2.3125 0.109375 1.757812 -0.09375 1.34375 -0.5 C 0.9375 -0.90625 0.734375 -1.441406 0.734375 -2.109375 L 0.734375 -5.25 C 0.734375 -5.90625 0.9375 -6.441406 1.34375 -6.859375 C 1.757812 -7.273438 2.3125 -7.484375 3 -7.484375 C 3.695312 -7.484375 4.25 -7.273438 4.65625 -6.859375 C 5.070312 -6.441406 5.28125 -5.90625 5.28125 -5.25 Z M 3 -6.578125 C 2.625 -6.578125 2.320312 -6.445312 2.09375 -6.1875 C 1.875 -5.925781 1.765625 -5.585938 1.765625 -5.171875 L 1.765625 -4.203125 C 1.765625 -4.160156 1.78125 -4.140625 1.8125 -4.140625 L 4.203125 -4.140625 C 4.242188 -4.140625 4.265625 -4.160156 4.265625 -4.203125 L 4.265625 -5.171875 C 4.265625 -5.585938 4.144531 -5.925781 3.90625 -6.1875 C 3.675781 -6.445312 3.375 -6.578125 3 -6.578125 Z M 3 -6.578125 "/></g></g><g transform="translate(76.504121, 59.495545)"><g><path d="M 1.03125 0 C 0.9375 0 0.890625 -0.046875 0.890625 -0.140625 L 0.890625 -10.03125 C 0.890625 -10.132812 0.9375 -10.1875 1.03125 -10.1875 L 1.78125 -10.1875 C 1.875 -10.1875 1.921875 -10.132812 1.921875 -10.03125 L 1.921875 -4.1875 C 1.921875 -4.164062 1.929688 -4.148438 1.953125 -4.140625 C 1.972656 -4.128906 1.988281 -4.132812 2 -4.15625 L 4.171875 -7.265625 C 4.210938 -7.328125 4.269531 -7.359375 4.34375 -7.359375 L 5.109375 -7.359375 C 5.160156 -7.359375 5.195312 -7.34375 5.21875 -7.3125 C 5.238281 -7.28125 5.226562 -7.238281 5.1875 -7.1875 L 3.75 -5.125 C 3.71875 -5.09375 3.710938 -5.0625 3.734375 -5.03125 L 5.453125 -0.15625 L 5.46875 -0.109375 C 5.46875 -0.0351562 5.425781 0 5.34375 0 L 4.5625 0 C 4.476562 0 4.421875 -0.0351562 4.390625 -0.109375 L 3.09375 -4.15625 C 3.082031 -4.21875 3.054688 -4.222656 3.015625 -4.171875 L 1.953125 -2.65625 C 1.929688 -2.644531 1.921875 -2.625 1.921875 -2.59375 L 1.921875 -0.140625 C 1.921875 -0.046875 1.875 0 1.78125 0 Z M 1.03125 0 "/></g></g></g><g fill="#FFFFFF" fill-opacity="1"><g transform="translate(82.394606, 59.495545)"><g><path d="M 0.953125 0 C 0.847656 0 0.796875 -0.046875 0.796875 -0.140625 L 0.796875 -10.03125 C 0.796875 -10.132812 0.847656 -10.1875 0.953125 -10.1875 L 1.6875 -10.1875 C 1.78125 -10.1875 1.828125 -10.132812 1.828125 -10.03125 L 1.828125 -0.140625 C 1.828125 -0.046875 1.78125 0 1.6875 0 Z M 0.953125 0 "/></g></g></g><g fill="#FFFFFF" fill-opacity="1"><g transform="translate(85.027144, 59.495545)"><g><path d="M 3.046875 -7.484375 C 3.722656 -7.484375 4.265625 -7.257812 4.671875 -6.8125 C 5.078125 -6.375 5.28125 -5.785156 5.28125 -5.046875 L 5.28125 -0.140625 C 5.28125 -0.046875 5.234375 0 5.140625 0 L 4.390625 0 C 4.296875 0 4.25 -0.046875 4.25 -0.140625 L 4.25 -0.578125 C 4.25 -0.597656 4.238281 -0.609375 4.21875 -0.609375 C 4.207031 -0.617188 4.191406 -0.613281 4.171875 -0.59375 C 3.816406 -0.125 3.28125 0.109375 2.5625 0.109375 C 2.03125 0.109375 1.566406 -0.0390625 1.171875 -0.34375 C 0.773438 -0.644531 0.578125 -1.1875 0.578125 -1.96875 C 0.578125 -2.789062 0.8125 -3.390625 1.28125 -3.765625 C 1.757812 -4.148438 2.390625 -4.34375 3.171875 -4.34375 L 4.1875 -4.34375 C 4.226562 -4.34375 4.25 -4.363281 4.25 -4.40625 L 4.25 -4.96875 C 4.25 -5.457031 4.132812 -5.847656 3.90625 -6.140625 C 3.6875 -6.429688 3.390625 -6.578125 3.015625 -6.578125 C 2.722656 -6.578125 2.472656 -6.476562 2.265625 -6.28125 C 2.054688 -6.09375 1.929688 -5.847656 1.890625 -5.546875 C 1.890625 -5.441406 1.84375 -5.390625 1.75 -5.390625 L 0.9375 -5.40625 C 0.882812 -5.40625 0.84375 -5.421875 0.8125 -5.453125 C 0.789062 -5.484375 0.785156 -5.519531 0.796875 -5.5625 C 0.847656 -6.132812 1.082031 -6.597656 1.5 -6.953125 C 1.914062 -7.304688 2.429688 -7.484375 3.046875 -7.484375 Z M 2.78125 -0.78125 C 3.175781 -0.78125 3.519531 -0.910156 3.8125 -1.171875 C 4.101562 -1.429688 4.25 -1.785156 4.25 -2.234375 L 4.25 -3.46875 C 4.25 -3.5 4.226562 -3.515625 4.1875 -3.515625 L 3.15625 -3.515625 C 2.6875 -3.515625 2.316406 -3.390625 2.046875 -3.140625 C 1.773438 -2.898438 1.640625 -2.535156 1.640625 -2.046875 C 1.640625 -1.617188 1.742188 -1.300781 1.953125 -1.09375 C 2.160156 -0.882812 2.4375 -0.78125 2.78125 -0.78125 Z M 2.78125 -0.78125 "/></g></g></g><g fill="#FFFFFF" fill-opacity="1"><g transform="translate(91.033987, 59.495545)"><g><path d="M 6.78125 -7.46875 C 7.363281 -7.46875 7.8125 -7.253906 8.125 -6.828125 C 8.445312 -6.398438 8.609375 -5.804688 8.609375 -5.046875 L 8.609375 -0.140625 C 8.609375 -0.046875 8.5625 0 8.46875 0 L 7.734375 0 C 7.640625 0 7.59375 -0.046875 7.59375 -0.140625 L 7.59375 -4.953125 C 7.59375 -5.453125 7.488281 -5.84375 7.28125 -6.125 C 7.070312 -6.414062 6.796875 -6.5625 6.453125 -6.5625 C 6.085938 -6.5625 5.796875 -6.421875 5.578125 -6.140625 C 5.367188 -5.859375 5.265625 -5.472656 5.265625 -4.984375 L 5.265625 -0.140625 C 5.265625 -0.046875 5.21875 0 5.125 0 L 4.375 0 C 4.28125 0 4.234375 -0.046875 4.234375 -0.140625 L 4.234375 -4.953125 C 4.234375 -5.453125 4.128906 -5.84375 3.921875 -6.125 C 3.710938 -6.414062 3.441406 -6.5625 3.109375 -6.5625 C 2.742188 -6.5625 2.453125 -6.421875 2.234375 -6.140625 C 2.015625 -5.859375 1.90625 -5.472656 1.90625 -4.984375 L 1.90625 -0.140625 C 1.90625 -0.046875 1.859375 0 1.765625 0 L 1.03125 0 C 0.9375 0 0.890625 -0.046875 0.890625 -0.140625 L 0.890625 -7.21875 C 0.890625 -7.3125 0.9375 -7.359375 1.03125 -7.359375 L 1.765625 -7.359375 C 1.859375 -7.359375 1.90625 -7.3125 1.90625 -7.21875 L 1.90625 -6.765625 C 1.90625 -6.742188 1.910156 -6.726562 1.921875 -6.71875 C 1.941406 -6.71875 1.960938 -6.726562 1.984375 -6.75 C 2.160156 -6.988281 2.375 -7.164062 2.625 -7.28125 C 2.882812 -7.40625 3.15625 -7.46875 3.4375 -7.46875 C 3.800781 -7.46875 4.117188 -7.375 4.390625 -7.1875 C 4.660156 -7.007812 4.867188 -6.757812 5.015625 -6.4375 C 5.023438 -6.414062 5.039062 -6.40625 5.0625 -6.40625 C 5.082031 -6.40625 5.097656 -6.414062 5.109375 -6.4375 C 5.285156 -6.789062 5.519531 -7.050781 5.8125 -7.21875 C 6.113281 -7.382812 6.4375 -7.46875 6.78125 -7.46875 Z M 6.78125 -7.46875 "/></g></g></g><g fill="#FFFFFF" fill-opacity="1"><g transform="translate(100.458769, 59.495545)"><g/></g><g transform="translate(103.367654, 59.495545)"><g><path d="M 3.390625 -7.484375 C 4.003906 -7.484375 4.492188 -7.28125 4.859375 -6.875 C 5.234375 -6.46875 5.421875 -5.925781 5.421875 -5.25 L 5.421875 -2.109375 C 5.421875 -1.453125 5.238281 -0.914062 4.875 -0.5 C 4.507812 -0.09375 4.015625 0.109375 3.390625 0.109375 C 3.128906 0.109375 2.875 0.0625 2.625 -0.03125 C 2.382812 -0.132812 2.175781 -0.289062 2 -0.5 C 1.976562 -0.519531 1.957031 -0.523438 1.9375 -0.515625 C 1.925781 -0.503906 1.921875 -0.488281 1.921875 -0.46875 L 1.921875 -0.140625 C 1.921875 -0.046875 1.875 0 1.78125 0 L 1.03125 0 C 0.9375 0 0.890625 -0.046875 0.890625 -0.140625 L 0.890625 -10.03125 C 0.890625 -10.132812 0.9375 -10.1875 1.03125 -10.1875 L 1.78125 -10.1875 C 1.875 -10.1875 1.921875 -10.132812 1.921875 -10.03125 L 1.921875 -6.890625 C 1.921875 -6.867188 1.929688 -6.851562 1.953125 -6.84375 C 1.972656 -6.84375 1.988281 -6.851562 2 -6.875 C 2.175781 -7.070312 2.382812 -7.222656 2.625 -7.328125 C 2.875 -7.429688 3.128906 -7.484375 3.390625 -7.484375 Z M 4.390625 -5.171875 C 4.390625 -5.585938 4.269531 -5.925781 4.03125 -6.1875 C 3.800781 -6.445312 3.5 -6.578125 3.125 -6.578125 C 2.769531 -6.578125 2.476562 -6.445312 2.25 -6.1875 C 2.03125 -5.925781 1.921875 -5.585938 1.921875 -5.171875 L 1.921875 -2.171875 C 1.921875 -1.765625 2.03125 -1.429688 2.25 -1.171875 C 2.476562 -0.910156 2.769531 -0.78125 3.125 -0.78125 C 3.5 -0.78125 3.800781 -0.910156 4.03125 -1.171875 C 4.269531 -1.429688 4.390625 -1.765625 4.390625 -2.171875 Z M 4.390625 -5.171875 "/></g></g></g><g fill="#FFFFFF" fill-opacity="1"><g transform="translate(109.519939, 59.495545)"><g><path d="M 1.515625 -8.703125 C 1.273438 -8.703125 1.078125 -8.78125 0.921875 -8.9375 C 0.773438 -9.09375 0.703125 -9.285156 0.703125 -9.515625 C 0.703125 -9.753906 0.773438 -9.945312 0.921875 -10.09375 C 1.078125 -10.25 1.273438 -10.328125 1.515625 -10.328125 C 1.742188 -10.328125 1.929688 -10.25 2.078125 -10.09375 C 2.234375 -9.945312 2.3125 -9.753906 2.3125 -9.515625 C 2.3125 -9.285156 2.234375 -9.09375 2.078125 -8.9375 C 1.929688 -8.78125 1.742188 -8.703125 1.515625 -8.703125 Z M 1.15625 0 C 1.050781 0 1 -0.046875 1 -0.140625 L 1 -7.21875 C 1 -7.3125 1.050781 -7.359375 1.15625 -7.359375 L 1.890625 -7.359375 C 1.984375 -7.359375 2.03125 -7.3125 2.03125 -7.21875 L 2.03125 -0.140625 C 2.03125 -0.046875 1.984375 0 1.890625 0 Z M 1.15625 0 "/></g></g></g><g fill="#FFFFFF" fill-opacity="1"><g transform="translate(112.545183, 59.495545)"><g><path d="M 0.625 0 C 0.53125 0 0.484375 -0.046875 0.484375 -0.140625 L 0.484375 -0.84375 C 0.484375 -0.914062 0.5 -0.976562 0.53125 -1.03125 L 3.5 -6.34375 C 3.507812 -6.363281 3.507812 -6.378906 3.5 -6.390625 C 3.5 -6.410156 3.492188 -6.421875 3.484375 -6.421875 L 0.6875 -6.421875 C 0.582031 -6.421875 0.53125 -6.46875 0.53125 -6.5625 L 0.53125 -7.21875 C 0.53125 -7.3125 0.582031 -7.359375 0.6875 -7.359375 L 4.609375 -7.359375 C 4.703125 -7.359375 4.75 -7.3125 4.75 -7.21875 L 4.75 -6.515625 C 4.75 -6.453125 4.738281 -6.390625 4.71875 -6.328125 L 1.703125 -1.015625 C 1.691406 -0.992188 1.691406 -0.976562 1.703125 -0.96875 C 1.710938 -0.957031 1.726562 -0.953125 1.75 -0.953125 L 4.640625 -0.953125 C 4.734375 -0.953125 4.78125 -0.898438 4.78125 -0.796875 L 4.78125 -0.140625 C 4.78125 -0.046875 4.734375 0 4.640625 0 Z M 0.625 0 "/></g></g></g><g fill="#FFFFFF" fill-opacity="1"><g transform="translate(117.79571, 59.495545)"><g><path d="M 4.234375 -10.03125 C 4.234375 -10.132812 4.28125 -10.1875 4.375 -10.1875 L 5.125 -10.1875 C 5.21875 -10.1875 5.265625 -10.132812 5.265625 -10.03125 L 5.265625 -0.140625 C 5.265625 -0.046875 5.21875 0 5.125 0 L 4.375 0 C 4.28125 0 4.234375 -0.046875 4.234375 -0.140625 L 4.234375 -0.46875 C 4.234375 -0.488281 4.222656 -0.503906 4.203125 -0.515625 C 4.191406 -0.523438 4.175781 -0.519531 4.15625 -0.5 C 3.789062 -0.09375 3.328125 0.109375 2.765625 0.109375 C 2.140625 0.109375 1.644531 -0.09375 1.28125 -0.5 C 0.914062 -0.914062 0.734375 -1.453125 0.734375 -2.109375 L 0.734375 -5.25 C 0.734375 -5.925781 0.914062 -6.46875 1.28125 -6.875 C 1.644531 -7.28125 2.140625 -7.484375 2.765625 -7.484375 C 3.335938 -7.484375 3.800781 -7.273438 4.15625 -6.859375 C 4.175781 -6.835938 4.191406 -6.832031 4.203125 -6.84375 C 4.222656 -6.851562 4.234375 -6.863281 4.234375 -6.875 Z M 3.015625 -0.78125 C 3.367188 -0.78125 3.660156 -0.910156 3.890625 -1.171875 C 4.117188 -1.429688 4.234375 -1.765625 4.234375 -2.171875 L 4.234375 -5.171875 C 4.234375 -5.585938 4.117188 -5.925781 3.890625 -6.1875 C 3.660156 -6.445312 3.367188 -6.578125 3.015625 -6.578125 C 2.640625 -6.578125 2.332031 -6.445312 2.09375 -6.1875 C 1.863281 -5.925781 1.75 -5.585938 1.75 -5.171875 L 1.75 -2.171875 C 1.75 -1.765625 1.863281 -1.429688 2.09375 -1.171875 C 2.332031 -0.910156 2.640625 -0.78125 3.015625 -0.78125 Z M 3.015625 -0.78125 "/></g></g></g><g fill="#FFFFFF" fill-opacity="1"><g transform="translate(123.947996, 59.495545)"><g><path d="M 2.921875 -7.484375 C 3.617188 -7.484375 4.171875 -7.273438 4.578125 -6.859375 C 4.992188 -6.453125 5.203125 -5.914062 5.203125 -5.25 L 5.203125 -2.109375 C 5.203125 -1.453125 4.992188 -0.914062 4.578125 -0.5 C 4.160156 -0.09375 3.609375 0.109375 2.921875 0.109375 C 2.234375 0.109375 1.679688 -0.09375 1.265625 -0.5 C 0.847656 -0.914062 0.640625 -1.453125 0.640625 -2.109375 L 0.640625 -3.921875 C 0.640625 -4.023438 0.6875 -4.078125 0.78125 -4.078125 L 4.109375 -4.078125 C 4.148438 -4.078125 4.171875 -4.09375 4.171875 -4.125 L 4.171875 -5.171875 C 4.171875 -5.585938 4.054688 -5.925781 3.828125 -6.1875 C 3.597656 -6.445312 3.296875 -6.578125 2.921875 -6.578125 C 2.609375 -6.578125 2.34375 -6.484375 2.125 -6.296875 C 1.914062 -6.109375 1.773438 -5.863281 1.703125 -5.5625 C 1.671875 -5.46875 1.617188 -5.421875 1.546875 -5.421875 L 0.8125 -5.453125 C 0.757812 -5.453125 0.722656 -5.46875 0.703125 -5.5 C 0.679688 -5.53125 0.675781 -5.566406 0.6875 -5.609375 C 0.757812 -6.179688 0.992188 -6.632812 1.390625 -6.96875 C 1.785156 -7.3125 2.296875 -7.484375 2.921875 -7.484375 Z M 2.921875 -0.78125 C 3.296875 -0.78125 3.597656 -0.910156 3.828125 -1.171875 C 4.054688 -1.429688 4.171875 -1.769531 4.171875 -2.1875 L 4.171875 -3.15625 C 4.171875 -3.195312 4.148438 -3.21875 4.109375 -3.21875 L 1.734375 -3.21875 C 1.691406 -3.21875 1.671875 -3.195312 1.671875 -3.15625 L 1.671875 -2.1875 C 1.671875 -1.769531 1.785156 -1.429688 2.015625 -1.171875 C 2.253906 -0.910156 2.554688 -0.78125 2.921875 -0.78125 Z M 2.921875 -0.78125 "/></g></g></g><g fill="#FFFFFF" fill-opacity="1"><g transform="translate(129.882113, 59.495545)"><g><path d="M 0.703125 1.15625 C 0.660156 1.15625 0.625 1.140625 0.59375 1.109375 C 0.5625 1.078125 0.550781 1.035156 0.5625 0.984375 L 1.015625 -2.125 C 1.023438 -2.207031 1.070312 -2.25 1.15625 -2.25 L 1.8125 -2.25 C 1.925781 -2.25 1.972656 -2.195312 1.953125 -2.09375 L 1.296875 1.015625 C 1.285156 1.109375 1.234375 1.15625 1.140625 1.15625 Z M 0.703125 1.15625 "/></g></g></g><g fill="#FFFFFF" fill-opacity="1"><g transform="translate(132.456471, 59.495545)"><g/></g><g transform="translate(135.365356, 59.495545)"><g><path d="M 4.234375 -7.21875 C 4.234375 -7.3125 4.28125 -7.359375 4.375 -7.359375 L 5.125 -7.359375 C 5.21875 -7.359375 5.265625 -7.3125 5.265625 -7.21875 L 5.265625 2.671875 C 5.265625 2.773438 5.21875 2.828125 5.125 2.828125 L 4.375 2.828125 C 4.28125 2.828125 4.234375 2.773438 4.234375 2.671875 L 4.234375 -0.484375 C 4.234375 -0.503906 4.222656 -0.515625 4.203125 -0.515625 C 4.191406 -0.523438 4.175781 -0.523438 4.15625 -0.515625 C 3.800781 -0.0976562 3.335938 0.109375 2.765625 0.109375 C 2.140625 0.109375 1.644531 -0.0859375 1.28125 -0.484375 C 0.914062 -0.890625 0.734375 -1.429688 0.734375 -2.109375 L 0.734375 -5.25 C 0.734375 -5.90625 0.914062 -6.441406 1.28125 -6.859375 C 1.644531 -7.273438 2.140625 -7.484375 2.765625 -7.484375 C 3.328125 -7.484375 3.789062 -7.273438 4.15625 -6.859375 C 4.175781 -6.847656 4.191406 -6.84375 4.203125 -6.84375 C 4.222656 -6.851562 4.234375 -6.867188 4.234375 -6.890625 Z M 3.015625 -0.78125 C 3.367188 -0.78125 3.660156 -0.910156 3.890625 -1.171875 C 4.117188 -1.429688 4.234375 -1.769531 4.234375 -2.1875 L 4.234375 -5.171875 C 4.234375 -5.585938 4.117188 -5.925781 3.890625 -6.1875 C 3.660156 -6.445312 3.367188 -6.578125 3.015625 -6.578125 C 2.640625 -6.578125 2.332031 -6.445312 2.09375 -6.1875 C 1.863281 -5.925781 1.75 -5.585938 1.75 -5.171875 L 1.75 -2.1875 C 1.75 -1.769531 1.863281 -1.429688 2.09375 -1.171875 C 2.332031 -0.910156 2.640625 -0.78125 3.015625 -0.78125 Z M 3.015625 -0.78125 "/></g></g></g><g fill="#FFFFFF" fill-opacity="1"><g transform="translate(141.590368, 59.495545)"><g><path d="M 3.046875 -7.484375 C 3.722656 -7.484375 4.265625 -7.257812 4.671875 -6.8125 C 5.078125 -6.375 5.28125 -5.785156 5.28125 -5.046875 L 5.28125 -0.140625 C 5.28125 -0.046875 5.234375 0 5.140625 0 L 4.390625 0 C 4.296875 0 4.25 -0.046875 4.25 -0.140625 L 4.25 -0.578125 C 4.25 -0.597656 4.238281 -0.609375 4.21875 -0.609375 C 4.207031 -0.617188 4.191406 -0.613281 4.171875 -0.59375 C 3.816406 -0.125 3.28125 0.109375 2.5625 0.109375 C 2.03125 0.109375 1.566406 -0.0390625 1.171875 -0.34375 C 0.773438 -0.644531 0.578125 -1.1875 0.578125 -1.96875 C 0.578125 -2.789062 0.8125 -3.390625 1.28125 -3.765625 C 1.757812 -4.148438 2.390625 -4.34375 3.171875 -4.34375 L 4.1875 -4.34375 C 4.226562 -4.34375 4.25 -4.363281 4.25 -4.40625 L 4.25 -4.96875 C 4.25 -5.457031 4.132812 -5.847656 3.90625 -6.140625 C 3.6875 -6.429688 3.390625 -6.578125 3.015625 -6.578125 C 2.722656 -6.578125 2.472656 -6.476562 2.265625 -6.28125 C 2.054688 -6.09375 1.929688 -5.847656 1.890625 -5.546875 C 1.890625 -5.441406 1.84375 -5.390625 1.75 -5.390625 L 0.9375 -5.40625 C 0.882812 -5.40625 0.84375 -5.421875 0.8125 -5.453125 C 0.789062 -5.484375 0.785156 -5.519531 0.796875 -5.5625 C 0.847656 -6.132812 1.082031 -6.597656 1.5 -6.953125 C 1.914062 -7.304688 2.429688 -7.484375 3.046875 -7.484375 Z M 2.78125 -0.78125 C 3.175781 -0.78125 3.519531 -0.910156 3.8125 -1.171875 C 4.101562 -1.429688 4.25 -1.785156 4.25 -2.234375 L 4.25 -3.46875 C 4.25 -3.5 4.226562 -3.515625 4.1875 -3.515625 L 3.15625 -3.515625 C 2.6875 -3.515625 2.316406 -3.390625 2.046875 -3.140625 C 1.773438 -2.898438 1.640625 -2.535156 1.640625 -2.046875 C 1.640625 -1.617188 1.742188 -1.300781 1.953125 -1.09375 C 2.160156 -0.882812 2.4375 -0.78125 2.78125 -0.78125 Z M 2.78125 -0.78125 "/></g></g></g><g fill="#FFFFFF" fill-opacity="1"><g transform="translate(147.597212, 59.495545)"><g><path d="M 0.625 0 C 0.53125 0 0.484375 -0.046875 0.484375 -0.140625 L 0.484375 -0.84375 C 0.484375 -0.914062 0.5 -0.976562 0.53125 -1.03125 L 3.5 -6.34375 C 3.507812 -6.363281 3.507812 -6.378906 3.5 -6.390625 C 3.5 -6.410156 3.492188 -6.421875 3.484375 -6.421875 L 0.6875 -6.421875 C 0.582031 -6.421875 0.53125 -6.46875 0.53125 -6.5625 L 0.53125 -7.21875 C 0.53125 -7.3125 0.582031 -7.359375 0.6875 -7.359375 L 4.609375 -7.359375 C 4.703125 -7.359375 4.75 -7.3125 4.75 -7.21875 L 4.75 -6.515625 C 4.75 -6.453125 4.738281 -6.390625 4.71875 -6.328125 L 1.703125 -1.015625 C 1.691406 -0.992188 1.691406 -0.976562 1.703125 -0.96875 C 1.710938 -0.957031 1.726562 -0.953125 1.75 -0.953125 L 4.640625 -0.953125 C 4.734375 -0.953125 4.78125 -0.898438 4.78125 -0.796875 L 4.78125 -0.140625 C 4.78125 -0.046875 4.734375 0 4.640625 0 Z M 0.625 0 "/></g></g></g><g fill="#FFFFFF" fill-opacity="1"><g transform="translate(152.847739, 59.495545)"><g><path d="M 3.046875 -7.484375 C 3.722656 -7.484375 4.265625 -7.257812 4.671875 -6.8125 C 5.078125 -6.375 5.28125 -5.785156 5.28125 -5.046875 L 5.28125 -0.140625 C 5.28125 -0.046875 5.234375 0 5.140625 0 L 4.390625 0 C 4.296875 0 4.25 -0.046875 4.25 -0.140625 L 4.25 -0.578125 C 4.25 -0.597656 4.238281 -0.609375 4.21875 -0.609375 C 4.207031 -0.617188 4.191406 -0.613281 4.171875 -0.59375 C 3.816406 -0.125 3.28125 0.109375 2.5625 0.109375 C 2.03125 0.109375 1.566406 -0.0390625 1.171875 -0.34375 C 0.773438 -0.644531 0.578125 -1.1875 0.578125 -1.96875 C 0.578125 -2.789062 0.8125 -3.390625 1.28125 -3.765625 C 1.757812 -4.148438 2.390625 -4.34375 3.171875 -4.34375 L 4.1875 -4.34375 C 4.226562 -4.34375 4.25 -4.363281 4.25 -4.40625 L 4.25 -4.96875 C 4.25 -5.457031 4.132812 -5.847656 3.90625 -6.140625 C 3.6875 -6.429688 3.390625 -6.578125 3.015625 -6.578125 C 2.722656 -6.578125 2.472656 -6.476562 2.265625 -6.28125 C 2.054688 -6.09375 1.929688 -5.847656 1.890625 -5.546875 C 1.890625 -5.441406 1.84375 -5.390625 1.75 -5.390625 L 0.9375 -5.40625 C 0.882812 -5.40625 0.84375 -5.421875 0.8125 -5.453125 C 0.789062 -5.484375 0.785156 -5.519531 0.796875 -5.5625 C 0.847656 -6.132812 1.082031 -6.597656 1.5 -6.953125 C 1.914062 -7.304688 2.429688 -7.484375 3.046875 -7.484375 Z M 2.78125 -0.78125 C 3.175781 -0.78125 3.519531 -0.910156 3.8125 -1.171875 C 4.101562 -1.429688 4.25 -1.785156 4.25 -2.234375 L 4.25 -3.46875 C 4.25 -3.5 4.226562 -3.515625 4.1875 -3.515625 L 3.15625 -3.515625 C 2.6875 -3.515625 2.316406 -3.390625 2.046875 -3.140625 C 1.773438 -2.898438 1.640625 -2.535156 1.640625 -2.046875 C 1.640625 -1.617188 1.742188 -1.300781 1.953125 -1.09375 C 2.160156 -0.882812 2.4375 -0.78125 2.78125 -0.78125 Z M 2.78125 -0.78125 "/></g></g></g><g fill="#FFFFFF" fill-opacity="1"><g transform="translate(158.854583, 59.495545)"><g><path d="M 3.5 -7.46875 C 4.09375 -7.46875 4.550781 -7.257812 4.875 -6.84375 C 5.207031 -6.4375 5.375 -5.875 5.375 -5.15625 L 5.375 -0.140625 C 5.375 -0.046875 5.320312 0 5.21875 0 L 4.484375 0 C 4.378906 0 4.328125 -0.046875 4.328125 -0.140625 L 4.328125 -5.0625 C 4.328125 -5.539062 4.222656 -5.910156 4.015625 -6.171875 C 3.804688 -6.429688 3.519531 -6.5625 3.15625 -6.5625 C 2.769531 -6.5625 2.46875 -6.421875 2.25 -6.140625 C 2.03125 -5.859375 1.921875 -5.472656 1.921875 -4.984375 L 1.921875 -0.140625 C 1.921875 -0.046875 1.875 0 1.78125 0 L 1.03125 0 C 0.9375 0 0.890625 -0.046875 0.890625 -0.140625 L 0.890625 -7.21875 C 0.890625 -7.3125 0.9375 -7.359375 1.03125 -7.359375 L 1.78125 -7.359375 C 1.875 -7.359375 1.921875 -7.3125 1.921875 -7.21875 L 1.921875 -6.75 C 1.921875 -6.726562 1.929688 -6.710938 1.953125 -6.703125 C 1.972656 -6.691406 1.988281 -6.703125 2 -6.734375 C 2.164062 -6.972656 2.382812 -7.15625 2.65625 -7.28125 C 2.925781 -7.40625 3.207031 -7.46875 3.5 -7.46875 Z M 3.5 -7.46875 "/></g></g></g><g fill="#FFFFFF" fill-opacity="1"><g transform="translate(165.021416, 59.495545)"><g><path d="M 3 0.109375 C 2.3125 0.109375 1.757812 -0.09375 1.34375 -0.5 C 0.9375 -0.90625 0.734375 -1.441406 0.734375 -2.109375 L 0.734375 -5.25 C 0.734375 -5.90625 0.941406 -6.441406 1.359375 -6.859375 C 1.773438 -7.273438 2.320312 -7.484375 3 -7.484375 C 3.457031 -7.484375 3.859375 -7.390625 4.203125 -7.203125 C 4.554688 -7.015625 4.828125 -6.769531 5.015625 -6.46875 C 5.203125 -6.164062 5.296875 -5.828125 5.296875 -5.453125 L 5.296875 -5.3125 C 5.296875 -5.21875 5.25 -5.171875 5.15625 -5.171875 L 4.40625 -5.140625 C 4.3125 -5.140625 4.265625 -5.1875 4.265625 -5.28125 L 4.265625 -5.375 C 4.265625 -5.695312 4.144531 -5.976562 3.90625 -6.21875 C 3.664062 -6.457031 3.363281 -6.578125 3 -6.578125 C 2.625 -6.578125 2.320312 -6.445312 2.09375 -6.1875 C 1.875 -5.925781 1.765625 -5.585938 1.765625 -5.171875 L 1.765625 -2.1875 C 1.765625 -1.769531 1.875 -1.429688 2.09375 -1.171875 C 2.320312 -0.910156 2.625 -0.78125 3 -0.78125 C 3.363281 -0.78125 3.664062 -0.898438 3.90625 -1.140625 C 4.144531 -1.378906 4.265625 -1.660156 4.265625 -1.984375 L 4.265625 -2.078125 C 4.265625 -2.171875 4.3125 -2.21875 4.40625 -2.21875 L 5.15625 -2.21875 C 5.25 -2.21875 5.296875 -2.164062 5.296875 -2.0625 L 5.296875 -1.90625 C 5.296875 -1.320312 5.082031 -0.835938 4.65625 -0.453125 C 4.238281 -0.078125 3.6875 0.109375 3 0.109375 Z M 3 0.109375 "/></g></g></g><g fill="#FFFFFF" fill-opacity="1"><g transform="translate(170.86827, 59.495545)"><g/></g><g transform="translate(173.777155, 59.495545)"><g><path d="M 2.8125 0.078125 C 2.132812 0.078125 1.59375 -0.09375 1.1875 -0.4375 C 0.789062 -0.78125 0.59375 -1.238281 0.59375 -1.8125 L 0.59375 -1.921875 C 0.59375 -2.015625 0.640625 -2.0625 0.734375 -2.0625 L 1.4375 -2.0625 C 1.53125 -2.0625 1.578125 -2.015625 1.578125 -1.921875 L 1.578125 -1.828125 C 1.578125 -1.523438 1.691406 -1.265625 1.921875 -1.046875 C 2.148438 -0.835938 2.453125 -0.734375 2.828125 -0.734375 C 3.171875 -0.734375 3.445312 -0.835938 3.65625 -1.046875 C 3.875 -1.265625 3.984375 -1.535156 3.984375 -1.859375 C 3.984375 -2.109375 3.914062 -2.316406 3.78125 -2.484375 C 3.644531 -2.660156 3.488281 -2.796875 3.3125 -2.890625 C 3.132812 -2.992188 2.863281 -3.117188 2.5 -3.265625 C 2.125 -3.421875 1.8125 -3.570312 1.5625 -3.71875 C 1.3125 -3.875 1.097656 -4.085938 0.921875 -4.359375 C 0.742188 -4.640625 0.65625 -4.992188 0.65625 -5.421875 C 0.65625 -6.046875 0.84375 -6.535156 1.21875 -6.890625 C 1.601562 -7.253906 2.125 -7.4375 2.78125 -7.4375 C 3.4375 -7.4375 3.957031 -7.25 4.34375 -6.875 C 4.738281 -6.507812 4.9375 -6.019531 4.9375 -5.40625 L 4.9375 -5.375 C 4.9375 -5.269531 4.882812 -5.21875 4.78125 -5.21875 L 4.109375 -5.21875 C 4.015625 -5.21875 3.96875 -5.269531 3.96875 -5.375 L 3.96875 -5.453125 C 3.96875 -5.785156 3.859375 -6.054688 3.640625 -6.265625 C 3.421875 -6.484375 3.140625 -6.59375 2.796875 -6.59375 C 2.441406 -6.59375 2.160156 -6.484375 1.953125 -6.265625 C 1.742188 -6.046875 1.640625 -5.773438 1.640625 -5.453125 C 1.640625 -5.222656 1.703125 -5.023438 1.828125 -4.859375 C 1.953125 -4.703125 2.109375 -4.570312 2.296875 -4.46875 C 2.484375 -4.375 2.738281 -4.253906 3.0625 -4.109375 C 3.46875 -3.929688 3.796875 -3.765625 4.046875 -3.609375 C 4.304688 -3.453125 4.53125 -3.234375 4.71875 -2.953125 C 4.914062 -2.671875 5.015625 -2.320312 5.015625 -1.90625 C 5.015625 -1.300781 4.816406 -0.816406 4.421875 -0.453125 C 4.023438 -0.0976562 3.488281 0.078125 2.8125 0.078125 Z M 2.8125 0.078125 "/></g></g></g><g fill="#FFFFFF" fill-opacity="1"><g transform="translate(179.216767, 59.495545)"><g><path d="M 1.515625 -8.703125 C 1.273438 -8.703125 1.078125 -8.78125 0.921875 -8.9375 C 0.773438 -9.09375 0.703125 -9.285156 0.703125 -9.515625 C 0.703125 -9.753906 0.773438 -9.945312 0.921875 -10.09375 C 1.078125 -10.25 1.273438 -10.328125 1.515625 -10.328125 C 1.742188 -10.328125 1.929688 -10.25 2.078125 -10.09375 C 2.234375 -9.945312 2.3125 -9.753906 2.3125 -9.515625 C 2.3125 -9.285156 2.234375 -9.09375 2.078125 -8.9375 C 1.929688 -8.78125 1.742188 -8.703125 1.515625 -8.703125 Z M 1.15625 0 C 1.050781 0 1 -0.046875 1 -0.140625 L 1 -7.21875 C 1 -7.3125 1.050781 -7.359375 1.15625 -7.359375 L 1.890625 -7.359375 C 1.984375 -7.359375 2.03125 -7.3125 2.03125 -7.21875 L 2.03125 -0.140625 C 2.03125 -0.046875 1.984375 0 1.890625 0 Z M 1.15625 0 "/></g></g></g><g fill="#FFFFFF" fill-opacity="1"><g transform="translate(182.24201, 59.495545)"><g><path d="M 0.625 0 C 0.53125 0 0.484375 -0.046875 0.484375 -0.140625 L 0.484375 -0.84375 C 0.484375 -0.914062 0.5 -0.976562 0.53125 -1.03125 L 3.5 -6.34375 C 3.507812 -6.363281 3.507812 -6.378906 3.5 -6.390625 C 3.5 -6.410156 3.492188 -6.421875 3.484375 -6.421875 L 0.6875 -6.421875 C 0.582031 -6.421875 0.53125 -6.46875 0.53125 -6.5625 L 0.53125 -7.21875 C 0.53125 -7.3125 0.582031 -7.359375 0.6875 -7.359375 L 4.609375 -7.359375 C 4.703125 -7.359375 4.75 -7.3125 4.75 -7.21875 L 4.75 -6.515625 C 4.75 -6.453125 4.738281 -6.390625 4.71875 -6.328125 L 1.703125 -1.015625 C 1.691406 -0.992188 1.691406 -0.976562 1.703125 -0.96875 C 1.710938 -0.957031 1.726562 -0.953125 1.75 -0.953125 L 4.640625 -0.953125 C 4.734375 -0.953125 4.78125 -0.898438 4.78125 -0.796875 L 4.78125 -0.140625 C 4.78125 -0.046875 4.734375 0 4.640625 0 Z M 0.625 0 "/></g></g></g><g fill="#FFFFFF" fill-opacity="1"><g transform="translate(187.492537, 59.495545)"><g><path d="M 4.234375 -10.03125 C 4.234375 -10.132812 4.28125 -10.1875 4.375 -10.1875 L 5.125 -10.1875 C 5.21875 -10.1875 5.265625 -10.132812 5.265625 -10.03125 L 5.265625 -0.140625 C 5.265625 -0.046875 5.21875 0 5.125 0 L 4.375 0 C 4.28125 0 4.234375 -0.046875 4.234375 -0.140625 L 4.234375 -0.46875 C 4.234375 -0.488281 4.222656 -0.503906 4.203125 -0.515625 C 4.191406 -0.523438 4.175781 -0.519531 4.15625 -0.5 C 3.789062 -0.09375 3.328125 0.109375 2.765625 0.109375 C 2.140625 0.109375 1.644531 -0.09375 1.28125 -0.5 C 0.914062 -0.914062 0.734375 -1.453125 0.734375 -2.109375 L 0.734375 -5.25 C 0.734375 -5.925781 0.914062 -6.46875 1.28125 -6.875 C 1.644531 -7.28125 2.140625 -7.484375 2.765625 -7.484375 C 3.335938 -7.484375 3.800781 -7.273438 4.15625 -6.859375 C 4.175781 -6.835938 4.191406 -6.832031 4.203125 -6.84375 C 4.222656 -6.851562 4.234375 -6.863281 4.234375 -6.875 Z M 3.015625 -0.78125 C 3.367188 -0.78125 3.660156 -0.910156 3.890625 -1.171875 C 4.117188 -1.429688 4.234375 -1.765625 4.234375 -2.171875 L 4.234375 -5.171875 C 4.234375 -5.585938 4.117188 -5.925781 3.890625 -6.1875 C 3.660156 -6.445312 3.367188 -6.578125 3.015625 -6.578125 C 2.640625 -6.578125 2.332031 -6.445312 2.09375 -6.1875 C 1.863281 -5.925781 1.75 -5.585938 1.75 -5.171875 L 1.75 -2.171875 C 1.75 -1.765625 1.863281 -1.429688 2.09375 -1.171875 C 2.332031 -0.910156 2.640625 -0.78125 3.015625 -0.78125 Z M 3.015625 -0.78125 "/></g></g></g><g fill="#FFFFFF" fill-opacity="1"><g transform="translate(193.644823, 59.495545)"><g><path d="M 2.921875 -7.484375 C 3.617188 -7.484375 4.171875 -7.273438 4.578125 -6.859375 C 4.992188 -6.453125 5.203125 -5.914062 5.203125 -5.25 L 5.203125 -2.109375 C 5.203125 -1.453125 4.992188 -0.914062 4.578125 -0.5 C 4.160156 -0.09375 3.609375 0.109375 2.921875 0.109375 C 2.234375 0.109375 1.679688 -0.09375 1.265625 -0.5 C 0.847656 -0.914062 0.640625 -1.453125 0.640625 -2.109375 L 0.640625 -3.921875 C 0.640625 -4.023438 0.6875 -4.078125 0.78125 -4.078125 L 4.109375 -4.078125 C 4.148438 -4.078125 4.171875 -4.09375 4.171875 -4.125 L 4.171875 -5.171875 C 4.171875 -5.585938 4.054688 -5.925781 3.828125 -6.1875 C 3.597656 -6.445312 3.296875 -6.578125 2.921875 -6.578125 C 2.609375 -6.578125 2.34375 -6.484375 2.125 -6.296875 C 1.914062 -6.109375 1.773438 -5.863281 1.703125 -5.5625 C 1.671875 -5.46875 1.617188 -5.421875 1.546875 -5.421875 L 0.8125 -5.453125 C 0.757812 -5.453125 0.722656 -5.46875 0.703125 -5.5 C 0.679688 -5.53125 0.675781 -5.566406 0.6875 -5.609375 C 0.757812 -6.179688 0.992188 -6.632812 1.390625 -6.96875 C 1.785156 -7.3125 2.296875 -7.484375 2.921875 -7.484375 Z M 2.921875 -0.78125 C 3.296875 -0.78125 3.597656 -0.910156 3.828125 -1.171875 C 4.054688 -1.429688 4.171875 -1.769531 4.171875 -2.1875 L 4.171875 -3.15625 C 4.171875 -3.195312 4.148438 -3.21875 4.109375 -3.21875 L 1.734375 -3.21875 C 1.691406 -3.21875 1.671875 -3.195312 1.671875 -3.15625 L 1.671875 -2.1875 C 1.671875 -1.769531 1.785156 -1.429688 2.015625 -1.171875 C 2.253906 -0.910156 2.554688 -0.78125 2.921875 -0.78125 Z M 2.921875 -0.78125 "/></g></g></g><g fill="#FFFFFF" fill-opacity="1"><g transform="translate(199.57894, 59.495545)"><g><path d="M 1.5625 -3.3125 C 1.457031 -3.3125 1.40625 -3.363281 1.40625 -3.46875 L 1.328125 -10.03125 C 1.328125 -10.132812 1.375 -10.1875 1.46875 -10.1875 L 2.21875 -10.1875 C 2.3125 -10.1875 2.359375 -10.132812 2.359375 -10.03125 L 2.25 -3.46875 C 2.25 -3.363281 2.203125 -3.3125 2.109375 -3.3125 Z M 1.828125 -0.0625 C 1.585938 -0.0625 1.390625 -0.132812 1.234375 -0.28125 C 1.085938 -0.4375 1.015625 -0.628906 1.015625 -0.859375 C 1.015625 -1.097656 1.085938 -1.289062 1.234375 -1.4375 C 1.390625 -1.59375 1.585938 -1.671875 1.828125 -1.671875 C 2.066406 -1.671875 2.257812 -1.59375 2.40625 -1.4375 C 2.5625 -1.289062 2.640625 -1.097656 2.640625 -0.859375 C 2.640625 -0.628906 2.5625 -0.4375 2.40625 -0.28125 C 2.257812 -0.132812 2.066406 -0.0625 1.828125 -0.0625 Z M 1.828125 -0.0625 "/></g></g></g></svg>